# xmcd CD Database Entry
#
# Track frame offsets:
# 150
# 11689
# 21937
# 34654
# 48892
# 64689
# 79972
# 96252
# 106727
# 121264
# 133232
# 145389
# 158562
# 171824
# 178462
# 190997
# 202669
# 217254
# 229762
# 242008
# 254143
#
# Disc length: 3598 seconds
#
# Revision: 2
# Processed by: cddbd v1.4b42PL1 Copyright (c) Steve Scherf et al.
# Submitted via: tcd 2.0b
#
DISCID=2e0e0c15
DTITLE=Rob Fisher and the Coffee Club Orchestra - Shaking the Blues 
DTITLE=Away
DYEAR=1900
DGENRE=
TTITLE0=Puttin' on the Ritz
TTITLE1=Tishomingo Blues
TTITLE2=Deep Henderson
TTITLE3=How About Me?
TTITLE4=Lady of the Nile
TTITLE5=Stampede
TTITLE6=Confessin' That I Love You
TTITLE7=Three Little Words
TTITLE8=East Saint Louis Toodle-oo
TTITLE9=You Took Advantage of Me
TTITLE10=Wah-hoo
TTITLE11=Shaking The Blues Away
TTITLE12=Glad Rag Doll
TTITLE13=Doo Wacka Doo
TTITLE14=I'll Never Have to Dream Again - Lamour
TTITLE15=Steambait Stomp
TTITLE16=Doin' the Frog
TTITLE17=Copenhagen
TTITLE18=Blue Skies
TTITLE19=Beyond the Blue Horrizon
TTITLE20=Always
EXTD=
EXTT0=
EXTT1=
EXTT2=
EXTT3=
EXTT4=
EXTT5=
EXTT6=
EXTT7=
EXTT8=
EXTT9=
EXTT10=
EXTT11=
EXTT12=
EXTT13=
EXTT14=
EXTT15=
EXTT16=
EXTT17=
EXTT18=
EXTT19=
EXTT20=
PLAYORDER=
